<svg version="1" xmlns="http://www.w3.org/2000/svg" width="2666.667" height="2666.667" viewBox="0 0 2000.000000 2000.000000"><path d="M841.9 177.3c0 2.3 0 40.2-.1 84.3v80.1l-10.7 2.6c-13.5 3.4-19.8 5.2-44.4 13.3-44.7 14.6-89.7 34.9-131.5 59.5-4.5 2.7-8.6 4.9-9 4.9-.4 0-27.2-26.6-59.6-59-32.4-32.5-59.2-59-59.5-59-.8 0-223.1 222.4-223.1 223.1 0 .3 26.5 27.1 59 59.5 32.4 32.4 59 59.3 59 59.8s-2.9 5.9-6.4 12c-3.6 6.1-8.3 14.5-10.6 18.6-4.2 7.7-22 43.6-22 44.4 0 .3-1.5 3.7-3.4 7.8-10 21.6-24.1 61.3-31.6 88.8-2.3 8.5-4.7 17.3-5.3 19.5l-1.2 4-80.5.2c-44.3.1-82.2.2-84.2.2l-3.8.1v316l4.8.1c2.6 0 40.5.1 84.2.2l79.4.2 1.7 6c.9 3.3 3.4 12.1 5.4 19.5 6.3 22.7 18.2 57.5 24.6 71.7 1 2.4 1.9 4.5 1.9 4.8 0 .3 3 7.2 6.6 15.3 10.7 24 25.8 53.3 36 69.8 2.4 3.9 4.4 7.5 4.4 8s-26.7 27.5-59.2 60.1l-59.3 59.3L414 1583.5c60.8 60.8 111.2 111 112.1 111.5 1.2.7 13.8-11.4 60.8-58.3l59.2-59.2 4.7 2.6c2.6 1.5 11.2 6.3 19.2 10.8 27.2 15.3 63.7 32.4 90 42 6.3 2.3 12.4 4.6 13.5 5.1 3.8 1.7 36.1 11.9 45.8 14.5 10.4 2.8 10.8 2.9 17.9 4.5l4.7 1.1v82.7c0 45.5 0 83.5.1 84.4 0 1.7 8.2 1.8 158 1.8h158v-2.8c.1-1.5.1-39.4.1-84.3v-81.6l11.2-2.9c6.2-1.5 11.4-2.9 11.7-2.9 1.2-.3 10-2.8 16-4.7 53.8-16.7 99.5-36.7 147.3-64.6 4.9-2.9 9.2-5.2 9.5-5.2.4 0 27.2 26.6 59.6 59 32.4 32.5 59.2 59 59.5 59 .8 0 223.1-222.4 223.1-223.1 0-.3-26.7-27.3-59.4-59.9l-59.4-59.4 2.6-4c5.6-9 20.3-36 27.9-51.6 18.9-38.5 33.5-76.7 44.2-116 2.4-8.5 4.8-17.3 5.4-19.5l1.2-4 61.5-.2c33.8-.1 71.7-.2 84.3-.3h22.7v-158c0-149.8-.1-158-1.7-158.1h-84c-45.3-.1-82.5-.4-82.8-.8-.2-.5-1.8-6.2-3.5-12.7-6.3-24.1-21.2-69.2-27-81.9-.5-1.1-2.9-6.7-5.4-12.5-11.1-26.4-28-59.7-40.2-79.6-2.4-3.9-4.4-7.5-4.4-8s26.6-27.3 59-59.7c32.5-32.3 59-59 59-59.5 0-.4-50.2-50.9-111.5-112.2L1473 303.5l-59.8 59.8c-37.7 37.7-60.1 59.4-60.7 58.8-2-1.9-28.6-16.7-45-25-22.4-11.5-39.7-19.3-59-26.7-4.9-2-9.9-3.9-11-4.4-1.1-.4-3.6-1.3-5.5-2s-4.4-1.6-5.5-2c-3.8-1.5-14.1-4.9-27.5-9-18.9-5.7-21.3-6.4-31.6-9l-9.1-2.2-.1-82.2c0-45.1-.1-83.1-.1-84.3l-.1-2.3h-158l-158 .1-.1 4.2zM1023 623.5c6.3.3 13.3.8 15.5 1 11.8 1.5 21.2 2.8 22.5 3 24.3 4.4 39 8.1 58.2 14.5 54.7 18.3 102.1 47.2 144.1 88 9 8.7 26.5 27.8 31.3 34.1 1 1.4 4.6 6.1 7.9 10.5 25.6 33.8 47.6 77.6 59.4 118.5 4.2 14.3 8.2 31.6 9.5 40.9.2.8.5 2.8.9 4.5.6 2.8 1.1 6.2 2.1 15.2 1.2 9.9 1.9 16.2 2.2 20.8.4 6.3.4 44.5 0 50.5-.6 7.9-1.7 18.9-2.1 20.8-.2 1.1-.6 4.3-1 7.3-2.3 19.7-12.8 61.9-19 76.4-.7 1.6-2.9 7.3-5 12.5-14.2 35.8-36.4 72.1-63.9 104.5-7.2 8.5-33.2 34.5-40 40-2.7 2.2-6.3 5.2-8 6.6-23.7 19.9-59.7 41.5-91.6 54.9-21.9 9.3-63.1 21.3-80.5 23.6-2.7.3-5.3.8-5.6 1-.9.5-24.1 3.1-35.4 4-6.2.5-45.5.5-50 0-2.2-.2-7.1-.7-11-1-3.8-.3-8.1-.8-9.5-1.1-1.4-.2-4.7-.7-7.5-1-8.5-.9-26.4-4.5-40.3-8.1-37.8-9.7-70.4-23.6-106.7-45.7-7.7-4.7-28.9-19.7-34.1-24.2-.7-.6-5.5-4.6-10.8-9-11.9-10-33.4-31.7-44.8-45.4-22.4-26.8-41.9-58.5-56.3-91.5-4.9-11.3-15.9-41.9-16.9-47.2-.2-1.1-1.2-4.8-2.1-8.4l-2-8c-.2-.8-1-4.4-1.8-8-.8-3.6-1.8-8.8-2.3-11.5-.4-2.8-.9-5.7-1-6.5-.2-.8-.6-3.8-.9-6.5-.3-2.8-.8-5.7-1-6.5-.2-.8-.7-5.1-1.1-9.5-.3-4.4-.8-9.6-1-11.5-.5-4.7-.5-46.3 0-52 .9-11.1 1.7-18.7 2.1-21 .2-1.4.7-4.3 1-6.5 1.1-7.8 2.2-14.1 4.9-28 1.1-5.5 6-23.5 8.3-30.8 1.5-4.5 2.7-8.4 2.8-8.7.4-2 2.4-7.3 6.8-18.5 6.7-17 20.3-43.7 30.4-60 7.5-11.9 25-36.6 27.8-39 .6-.6 3.1-3.5 5.5-6.5 5.4-6.7 33.4-34.8 41-41.2 5.2-4.3 9.9-8.1 18-14.6 6.5-5.2 25.4-17.8 36.7-24.5 51-30.2 109.9-48 169.3-51.3 5.8-.3 10.6-.7 10.7-.8.3-.2 23.1.3 34.3.9z"/></svg>